<?xml version="1.0" encoding="UTF-8"?>
<svg version="1.1" xmlns="http://www.w3.org/2000/svg" width="512" height="512">
<path d="M0 0 C1.52715683 -0.00445668 1.52715683 -0.00445668 3.08516532 -0.0090034 C6.50118724 -0.01768412 9.9171741 -0.01919813 13.33320618 -0.02069092 C15.78074213 -0.02531954 18.22827737 -0.03034426 20.67581177 -0.03573608 C27.32886884 -0.04885801 33.98191221 -0.05534155 40.63497901 -0.05974674 C44.79183883 -0.06251218 48.94869633 -0.0667501 53.10555458 -0.07125092 C64.62218295 -0.08344164 76.13880947 -0.09374116 87.65544415 -0.09712601 C88.76051153 -0.09745536 88.76051153 -0.09745536 89.8879035 -0.09779136 C90.6263454 -0.09800964 91.36478731 -0.09822791 92.12560624 -0.09845281 C93.62188955 -0.09889627 95.11817287 -0.09934283 96.61445618 -0.09979248 C97.7277608 -0.10012463 97.7277608 -0.10012463 98.86355642 -0.10046348 C110.88425014 -0.10440973 122.90488318 -0.12185936 134.92555346 -0.145152 C147.27679799 -0.16889135 159.62801211 -0.18132904 171.97927982 -0.18249393 C178.91008582 -0.18340926 185.84081275 -0.18912586 192.77159691 -0.20731354 C199.29279105 -0.22436646 205.8138619 -0.22594785 212.3350811 -0.21717453 C214.72553662 -0.21640435 217.11600021 -0.22074435 219.50643539 -0.23063278 C222.77619659 -0.24336298 226.04542765 -0.23746921 229.31518555 -0.22705078 C230.72548264 -0.23913539 230.72548264 -0.23913539 232.16427058 -0.25146413 C242.84338062 -0.17218556 252.20506597 2.80373331 260.10786438 10.11309814 C268.62800421 19.02623336 270.57609093 27.84127966 270.48298645 39.93733215 C270.49234639 41.82109925 270.49234639 41.82109925 270.50189543 43.74292225 C270.51849297 47.20338433 270.51038668 50.66340148 270.49795055 54.12386453 C270.48886286 57.86557517 270.50288807 61.60721177 270.51387024 65.34890747 C270.53162003 72.66857758 270.52783148 79.98808326 270.51621968 87.30775971 C270.50717234 93.25806806 270.50596697 99.20833046 270.51031494 105.15864372 C270.51092787 106.00672622 270.51154081 106.85480871 270.51217231 107.72859068 C270.51345126 109.45164277 270.51474811 111.17469485 270.51606268 112.89774691 C270.52745792 129.03949661 270.514371 145.18115532 270.49286121 161.3228901 C270.47498795 175.16405641 270.47809825 189.00508854 270.49653625 202.84625244 C270.51795606 218.93326794 270.52636278 235.02020379 270.5140872 251.10723156 C270.51281305 252.8235063 270.51155556 254.53978106 270.51031494 256.25605583 C270.50938929 257.52260418 270.50938929 257.52260418 270.50844494 258.81473937 C270.50499561 264.75630431 270.51081131 270.69781859 270.52023315 276.63937569 C270.53146672 283.88237729 270.5283845 291.12520556 270.50711018 298.36818738 C270.49661842 302.06152982 270.49244566 305.75458354 270.50570679 309.44792366 C270.51987905 313.45571077 270.50292474 317.46277279 270.48298645 321.47053528 C270.49190934 322.63201963 270.50083222 323.79350399 270.5100255 324.99018484 C270.41044688 335.31134551 267.16119392 343.61792725 259.97505188 351.14044189 C253.83933136 356.21690121 248.1419603 360.14044189 239.97505188 360.14044189 C239.99599915 360.74517334 240.01694641 361.34990479 240.03852844 361.97296143 C240.12214133 364.73694961 240.17385242 367.50067102 240.22505188 370.26544189 C240.2585675 371.21677002 240.29208313 372.16809814 240.32661438 373.14825439 C240.40772517 378.98823102 240.10001864 382.63665166 235.97505188 387.14044189 C230.75245331 391.19674588 225.32165046 390.91441733 218.97505188 390.14044189 C213.91311109 387.74268047 212.95290539 386.10353107 209.97505188 381.14044189 C209.97505188 374.21044189 209.97505188 367.28044189 209.97505188 360.14044189 C147.27505188 360.14044189 84.57505188 360.14044189 19.97505188 360.14044189 C19.97505188 367.07044189 19.97505188 374.00044189 19.97505188 381.14044189 C15.2189029 388.27466537 15.2189029 388.27466537 10.97505188 390.14044189 C5.42696584 390.96929459 0.50364305 390.8645114 -4.58744812 388.45294189 C-7.73050069 385.47107151 -9.81505996 383.23221955 -10.26298523 378.76812744 C-10.3201368 375.94890384 -10.28627797 373.14672788 -10.21244812 370.32794189 C-10.19891296 369.34889893 -10.18537781 368.36985596 -10.1714325 367.36114502 C-10.13620124 364.95367564 -10.08694077 362.54734625 -10.02494812 360.14044189 C-11.63563171 359.94321533 -11.63563171 359.94321533 -13.27885437 359.74200439 C-21.27093387 358.45860477 -27.60303067 354.07320381 -33.02494812 348.14044189 C-37.03976261 342.21477898 -40.2711756 336.01014761 -40.28221703 328.7586031 C-40.28866592 327.6854124 -40.29511481 326.6122217 -40.30175912 325.50651008 C-40.29866192 324.33337436 -40.29556472 323.16023863 -40.29237366 321.95155334 C-40.29690477 320.7006863 -40.30143588 319.44981926 -40.3061043 318.16104716 C-40.31833744 314.69134033 -40.31807347 311.22172989 -40.31571555 307.75200641 C-40.31530745 304.00883999 -40.32634597 300.2657045 -40.33583069 296.52255249 C-40.35244423 289.18920901 -40.35794043 281.85589769 -40.35905544 274.52253697 C-40.36000591 268.56020826 -40.36411615 262.59789016 -40.3704567 256.6355648 C-40.38807139 239.72713557 -40.39729541 222.81873173 -40.39579575 205.91029326 C-40.39571584 204.99873987 -40.39563592 204.08718648 -40.39555359 203.14801025 C-40.39547183 202.23534213 -40.39539007 201.32267401 -40.39530583 200.38234928 C-40.39449324 185.59719972 -40.41362341 170.81215212 -40.44183032 156.02703205 C-40.47057179 140.84171157 -40.48436987 125.65644078 -40.48264277 110.4710924 C-40.48197922 101.94737264 -40.48745583 93.42375971 -40.50899887 84.90006447 C-40.52722747 77.64125016 -40.5315444 70.38259109 -40.51798002 63.12376378 C-40.5114583 59.42221943 -40.51130391 55.72097274 -40.52868652 52.01945686 C-40.54736361 48.00082986 -40.53484181 43.9828894 -40.51942444 39.96424866 C-40.52971156 38.80226654 -40.53999869 37.64028443 -40.55059755 36.44309074 C-40.45682093 25.36813506 -37.30831229 17.44497211 -29.66557312 9.40997314 C-20.64835472 1.65996739 -11.42636787 -0.01040703 0 0 Z M23.72505188 46.39044189 C19.68819744 52.7340703 19.68658817 59.091463 19.72108459 66.38812256 C19.71796461 67.40596911 19.71484463 68.42381566 19.71163011 69.47250605 C19.70366701 72.87554917 19.70996726 76.27841314 19.71626282 79.68145752 C19.71355221 82.12430424 19.70999089 84.56715015 19.7056427 87.00999451 C19.69747133 92.95173433 19.69866518 98.89342781 19.70446798 104.83516634 C19.70898935 109.66522599 19.70959532 114.49527148 19.70742035 119.32533264 C19.70711388 120.0134281 19.70680742 120.70152356 19.70649166 121.4104704 C19.7058522 122.80843254 19.70520377 124.20639469 19.70454648 125.60435683 C19.69884682 138.70533844 19.70539537 151.80629204 19.71614721 164.90726906 C19.7250824 176.14239669 19.72353025 187.37748298 19.71430969 198.61260986 C19.70360063 211.66751648 19.69939611 224.72239855 19.70553422 237.77730894 C19.7061713 239.17005634 19.70680004 240.56280374 19.70742035 241.95555115 C19.7077289 242.64076471 19.70803745 243.32597826 19.70835535 244.03195587 C19.71008038 248.8548111 19.70717132 253.67765073 19.70246124 258.50050354 C19.69625824 264.99461868 19.70069044 271.48867416 19.71224976 277.98278236 C19.71489467 280.36643151 19.71413412 282.75008722 19.70972443 285.13373375 C19.70426105 288.38683167 19.711113 291.63967926 19.72108459 294.89276123 C19.71662315 295.83644263 19.71216171 296.78012403 19.70756507 297.75240183 C19.74650659 304.30042294 19.9563088 309.81112295 24.41255188 314.95294189 C29.02597571 318.89123053 31.56523601 319.5859007 37.46723938 319.45684814 C41.16727101 318.99002172 43.23318885 317.61480609 45.97505188 315.14044189 C50.53972565 309.00174269 50.12219129 302.47543947 50.11549377 295.14672852 C50.1184649 294.13200195 50.12143602 293.11727538 50.12449718 292.07179952 C50.13317762 288.66726312 50.13469187 285.26276192 50.13618469 281.85821533 C50.14081331 279.41890894 50.14583803 276.97960328 50.15122986 274.54029846 C50.1643512 267.91003724 50.17083509 261.27978332 50.17524052 254.64951229 C50.17800581 250.50740112 50.18224367 246.36529228 50.18674469 242.22318268 C50.19893483 230.74858624 50.20923479 219.27399166 50.21261978 207.79938889 C50.21283935 207.06539335 50.21305891 206.33139781 50.21328513 205.57515998 C50.21350341 204.83943757 50.21372169 204.10371515 50.21394658 203.34569812 C50.21439004 201.85491609 50.21483661 200.36413407 50.21528625 198.87335205 C50.21550768 198.13387727 50.21572911 197.3944025 50.21595725 196.63251939 C50.21990441 184.65318245 50.23735704 172.67390636 50.26064578 160.69459292 C50.28437824 148.3874237 50.29682249 136.08028498 50.2979877 123.77309251 C50.29890337 116.86635156 50.3046285 109.95968994 50.32280731 103.05297089 C50.33984885 96.55558416 50.34144676 90.0583077 50.3326683 83.56090355 C50.33189758 81.17809077 50.33624532 78.79526991 50.34612656 76.41247749 C50.35883936 73.15550259 50.35297244 69.89906123 50.34254456 66.64208984 C50.35060096 65.70286989 50.35865736 64.76364994 50.3669579 63.79596877 C50.31159286 56.384091 49.33875515 49.84181706 44.35005188 44.14044189 C36.84465256 39.69279785 30.04316683 40.07232694 23.72505188 46.39044189 Z M183.72505188 46.39044189 C179.68819744 52.7340703 179.68658817 59.091463 179.72108459 66.38812256 C179.71796461 67.40596911 179.71484463 68.42381566 179.71163011 69.47250605 C179.70366701 72.87554917 179.70996726 76.27841314 179.71626282 79.68145752 C179.71355221 82.12430424 179.70999089 84.56715015 179.7056427 87.00999451 C179.69747133 92.95173433 179.69866518 98.89342781 179.70446798 104.83516634 C179.70898935 109.66522599 179.70959532 114.49527148 179.70742035 119.32533264 C179.70711388 120.0134281 179.70680742 120.70152356 179.70649166 121.4104704 C179.7058522 122.80843254 179.70520377 124.20639469 179.70454648 125.60435683 C179.69884682 138.70533844 179.70539537 151.80629204 179.71614721 164.90726906 C179.7250824 176.14239669 179.72353025 187.37748298 179.71430969 198.61260986 C179.70360063 211.66751648 179.69939611 224.72239855 179.70553422 237.77730894 C179.7061713 239.17005634 179.70680004 240.56280374 179.70742035 241.95555115 C179.7077289 242.64076471 179.70803745 243.32597826 179.70835535 244.03195587 C179.71008038 248.8548111 179.70717132 253.67765073 179.70246124 258.50050354 C179.69625824 264.99461868 179.70069044 271.48867416 179.71224976 277.98278236 C179.71489467 280.36643151 179.71413412 282.75008722 179.70972443 285.13373375 C179.70426105 288.38683167 179.711113 291.63967926 179.72108459 294.89276123 C179.71662315 295.83644263 179.71216171 296.78012403 179.70756507 297.75240183 C179.74650659 304.30042294 179.9563088 309.81112295 184.41255188 314.95294189 C189.02597571 318.89123053 191.56523601 319.5859007 197.46723938 319.45684814 C201.16727101 318.99002172 203.23318885 317.61480609 205.97505188 315.14044189 C210.53972565 309.00174269 210.12219129 302.47543947 210.11549377 295.14672852 C210.1184649 294.13200195 210.12143602 293.11727538 210.12449718 292.07179952 C210.13317762 288.66726312 210.13469187 285.26276192 210.13618469 281.85821533 C210.14081331 279.41890894 210.14583803 276.97960328 210.15122986 274.54029846 C210.1643512 267.91003724 210.17083509 261.27978332 210.17524052 254.64951229 C210.17800581 250.50740112 210.18224367 246.36529228 210.18674469 242.22318268 C210.19893483 230.74858624 210.20923479 219.27399166 210.21261978 207.79938889 C210.21283935 207.06539335 210.21305891 206.33139781 210.21328513 205.57515998 C210.21350341 204.83943757 210.21372169 204.10371515 210.21394658 203.34569812 C210.21439004 201.85491609 210.21483661 200.36413407 210.21528625 198.87335205 C210.21550768 198.13387727 210.21572911 197.3944025 210.21595725 196.63251939 C210.21990441 184.65318245 210.23735704 172.67390636 210.26064578 160.69459292 C210.28437824 148.3874237 210.29682249 136.08028498 210.2979877 123.77309251 C210.29890337 116.86635156 210.3046285 109.95968994 210.32280731 103.05297089 C210.33984885 96.55558416 210.34144676 90.0583077 210.3326683 83.56090355 C210.33189758 81.17809077 210.33624532 78.79526991 210.34612656 76.41247749 C210.35883936 73.15550259 210.35297244 69.89906123 210.34254456 66.64208984 C210.35060096 65.70286989 210.35865736 64.76364994 210.3669579 63.79596877 C210.31159286 56.384091 209.33875515 49.84181706 204.35005188 44.14044189 C196.84465256 39.69279785 190.04316683 40.07232694 183.72505188 46.39044189 Z " fill="#000000" transform="translate(242.0249481201172,121.85955810546875)"/>
<path d="M0 0 C1.42973309 0.00084738 2.85946749 0.00036896 4.28919983 -0.00132751 C8.15028909 -0.00218456 12.01109598 0.01539371 15.8721199 0.03639436 C19.91465047 0.05520993 23.95718826 0.05691543 27.99975586 0.06047058 C35.64585887 0.06977676 43.29183246 0.09437111 50.93787861 0.12451905 C59.64646539 0.15810762 68.35505851 0.17456025 77.063694 0.18960536 C94.96961924 0.22092202 112.8754242 0.27365461 130.78125 0.34057617 C130.78621522 2.05922048 130.78621522 2.05922048 130.79128075 3.81258488 C130.87044631 31.06363306 130.9597217 58.31463277 131.06130161 85.56560704 C131.07381918 88.92606198 131.08625216 92.28651722 131.09863281 95.64697266 C131.10109881 96.31592632 131.1035648 96.98487999 131.10610552 97.67410498 C131.14573558 108.47922357 131.17852587 119.2843525 131.20874982 130.08950103 C131.23995915 141.1919753 131.27875291 152.29440772 131.32404006 163.39683384 C131.34921367 169.62640126 131.37102167 175.85593828 131.38459396 182.08554268 C131.39749757 187.9582948 131.41964022 193.83094213 131.44863319 199.70363617 C131.45764446 201.85008798 131.46338397 203.99655663 131.46546364 206.14302635 C131.29258258 227.39192123 131.29258258 227.39192123 136.21875 247.90307617 C136.62996094 248.99749023 137.04117188 250.0919043 137.46484375 251.21948242 C138.77202895 254.31871379 140.2769915 257.33205916 141.78125 260.34057617 C101.19125 260.34057617 60.60125 260.34057617 18.78125 260.34057617 C18.78125 267.27057617 18.78125 274.20057617 18.78125 281.34057617 C14.02510102 288.47479964 14.02510102 288.47479964 9.78125 290.34057617 C4.23316396 291.16942886 -0.69015883 291.06464567 -5.78125 288.65307617 C-8.92430257 285.67120578 -11.00886184 283.43235382 -11.45678711 278.96826172 C-11.51393868 276.14903812 -11.48007985 273.34686215 -11.40625 270.52807617 C-11.39271484 269.5490332 -11.37917969 268.56999023 -11.36523438 267.5612793 C-11.33000312 265.15380992 -11.28074265 262.74748053 -11.21875 260.34057617 C-12.82943359 260.14334961 -12.82943359 260.14334961 -14.47265625 259.94213867 C-22.46473575 258.65873904 -28.79683255 254.27333809 -34.21875 248.34057617 C-36.17223704 245.45732821 -37.77522418 242.50738087 -39.21875 239.34057617 C-39.56402048 238.64307094 -39.90929096 237.9455657 -40.26502419 237.22692394 C-41.51217488 233.45255759 -41.50169976 229.87795034 -41.48617554 225.94807434 C-41.49070665 225.10556254 -41.49523776 224.26305073 -41.49990618 223.39500827 C-41.51256162 220.57317885 -41.51092906 217.75154215 -41.50927734 214.9296875 C-41.51526198 212.90578971 -41.52206738 210.88189421 -41.52963257 208.85800171 C-41.54730894 203.35985562 -41.55198872 197.86177177 -41.55326414 192.36360002 C-41.55468567 188.92702668 -41.55895537 185.49046917 -41.56425858 182.05389977 C-41.58276611 170.06017426 -41.59092851 158.06649322 -41.58935547 146.07275391 C-41.58815472 134.90117954 -41.60924218 123.72979858 -41.6408428 112.55827314 C-41.66701942 102.96148325 -41.67772214 93.36475646 -41.67644465 83.76793116 C-41.67593531 78.0387538 -41.68160268 72.3097482 -41.70280075 66.58060646 C-41.72220567 61.18872488 -41.722292 55.79717848 -41.70776749 50.40528488 C-41.70568092 48.43086824 -41.71037116 46.4564305 -41.7224884 44.48204994 C-41.79994105 30.98300912 -41.13843408 19.56818836 -31.21875 9.34057617 C-21.36464199 1.27812417 -12.41312105 -0.10340014 0 0 Z M22.78125 45.34057617 C18.98523991 50.44555526 18.65707187 55.37387777 18.64753723 61.58932495 C18.64327225 62.84820526 18.63900726 64.10708557 18.63461304 65.40411377 C18.63496252 66.79162601 18.63542403 68.17913822 18.63598633 69.56665039 C18.63299281 71.03384486 18.62958984 72.50103855 18.62580872 73.9682312 C18.61698433 77.94762128 18.61463126 81.92698984 18.61399293 85.90638876 C18.61328157 88.39415936 18.61114561 90.88192451 18.60849571 93.36969376 C18.59924762 102.05318804 18.59516017 110.73666697 18.59594727 119.42016602 C18.59654799 127.507305 18.58599582 135.59437726 18.5702036 143.68149936 C18.55711749 150.63112446 18.55176382 157.58072778 18.55240268 164.53036511 C18.55265734 168.67823516 18.54982362 172.8260459 18.53922462 176.97390366 C18.52952556 180.87599725 18.52947683 184.77797505 18.53674126 188.68007278 C18.53778484 190.10908935 18.53543769 191.5381132 18.5293808 192.96711731 C18.0877222 204.89516602 18.0877222 204.89516602 23.21875 215.15307617 C27.83217383 219.09136481 30.37143413 219.78603497 36.2734375 219.65698242 C39.97346913 219.190156 42.03938697 217.81494037 44.78125 215.34057617 C48.57726009 210.23559709 48.90542813 205.30727458 48.91496277 199.09182739 C48.91922775 197.83294708 48.92349274 196.57406677 48.92788696 195.27703857 C48.92753748 193.88952634 48.92707597 192.50201412 48.92651367 191.11450195 C48.92950719 189.64730748 48.93291016 188.1801138 48.93669128 186.71292114 C48.94551567 182.73353107 48.94786874 178.7541625 48.94850707 174.77476358 C48.94921843 172.28699298 48.95135439 169.79922783 48.95400429 167.31145859 C48.96325238 158.62796431 48.96733983 149.94448537 48.96655273 141.26098633 C48.96595201 133.17384735 48.97650418 125.08677508 48.9922964 116.99965298 C49.00538251 110.05002788 49.01073618 103.10042456 49.01009732 96.15078723 C49.00984266 92.00291718 49.01267638 87.85510644 49.02327538 83.70724869 C49.03297444 79.80515509 49.03302317 75.9031773 49.02575874 72.00107956 C49.02471516 70.57206299 49.02706231 69.14303915 49.0331192 67.71403503 C49.4747778 55.78598633 49.4747778 55.78598633 44.34375 45.52807617 C39.73032617 41.58978754 37.19106587 40.89511737 31.2890625 41.02416992 C27.58903087 41.49099634 25.52311303 42.86621198 22.78125 45.34057617 Z " fill="#000000" transform="translate(41.21875,221.659423828125)"/>
<path d="M0 0 C0.66727112 -0.0065712 1.33454224 -0.0131424 2.02203369 -0.01991272 C4.22481414 -0.03957956 6.42752648 -0.05129613 8.63037109 -0.0612793 C9.38650066 -0.06535482 10.14263023 -0.06943035 10.92167282 -0.07362938 C14.92727125 -0.09446627 18.93283572 -0.10877582 22.93847656 -0.11816406 C27.05394459 -0.12919776 31.16886737 -0.1635687 35.28414345 -0.20333576 C38.46712167 -0.22962125 41.64997259 -0.2378666 44.83304977 -0.24144554 C46.34875528 -0.24628414 47.86445616 -0.25781935 49.38005447 -0.27648354 C62.28582623 -0.42548226 72.18588623 1.59071691 81.90380859 10.61450195 C89.13141185 18.41270547 93.41384055 25.6610215 93.39233398 36.41430664 C93.39225845 37.67531189 93.39218292 38.93631714 93.3921051 40.23553467 C93.38699888 41.60664917 93.38178289 42.97776326 93.37646484 44.34887695 C93.37459888 45.75563507 93.37317582 47.16239383 93.37217712 48.56915283 C93.36836603 52.26480923 93.3585478 55.96042608 93.34747314 59.65606689 C93.33722873 63.42996679 93.33261817 67.20387329 93.32763672 70.9777832 C93.31745541 78.37755766 93.29788019 85.77722366 93.27880859 93.17700195 C83.37880859 93.17700195 73.47880859 93.17700195 63.27880859 93.17700195 C63.22982422 89.33688477 63.18083984 85.49676758 63.13037109 81.5402832 C63.07635837 77.82027292 63.01905191 74.10032695 62.96142578 70.38037109 C62.92314761 67.79545891 62.88829273 65.21049366 62.85693359 62.62548828 C62.81125853 58.90939373 62.7532669 55.19366406 62.69287109 51.4777832 C62.68131989 50.32240555 62.66976868 49.16702789 62.65786743 47.97663879 C62.63799774 46.89589584 62.61812805 45.81515289 62.59765625 44.70166016 C62.58433258 43.75345901 62.57100891 42.80525787 62.55728149 41.82832336 C62.13539431 37.81156437 61.14387054 35.0420639 58.27880859 32.17700195 C55.21923517 31.13196204 52.34656972 31.04536178 49.13061523 31.03173828 C47.59365746 31.0221685 47.59365746 31.0221685 46.02565002 31.0124054 C44.92454391 31.01129257 43.82343781 31.01017975 42.68896484 31.0090332 C40.98395058 31.0040406 40.98395058 31.0040406 39.24449158 30.99894714 C36.84130254 30.99388602 34.43810647 30.99153857 32.03491211 30.99169922 C28.3589318 30.98951244 24.68325145 30.971347 21.00732422 30.95239258 C18.67203879 30.94945856 16.33675193 30.94747382 14.00146484 30.9465332 C12.90238297 30.93934769 11.80330109 30.93216217 10.6709137 30.92475891 C9.64312302 30.92783554 8.61533234 30.93091217 7.55639648 30.93408203 C6.20548668 30.9319445 6.20548668 30.9319445 4.82728577 30.92976379 C0.85145841 31.31547501 -1.89172417 32.34753472 -4.72119141 35.17700195 C-5.79294932 38.30526665 -5.87272652 41.29943488 -5.92651367 44.58813477 C-5.94645889 45.66895325 -5.96640411 46.74977173 -5.98695374 47.86334229 C-6.01202248 49.6041507 -6.01202248 49.6041507 -6.03759766 51.38012695 C-6.05837875 52.57305359 -6.07915985 53.76598022 -6.10057068 54.99505615 C-6.1659538 58.80564618 -6.22489917 62.61630509 -6.28369141 66.42700195 C-6.32688729 69.01034241 -6.37050193 71.5936759 -6.41455078 74.17700195 C-6.52241164 80.51026571 -6.62156934 86.84358178 -6.72119141 93.17700195 C-16.62119141 93.17700195 -26.52119141 93.17700195 -36.72119141 93.17700195 C-36.80532406 85.14233328 -36.88543107 77.10928135 -36.92819214 69.07455444 C-36.94922117 65.33214258 -36.97727124 61.59009946 -37.02294922 57.84790039 C-37.06675172 54.2363106 -37.09039999 50.62507596 -37.10070038 47.01324081 C-37.10803068 45.64265231 -37.12234339 44.27208089 -37.14411163 42.90164566 C-37.33466028 30.39601995 -34.96319245 20.89915692 -26.28369141 11.55200195 C-18.2580679 4.11361919 -11.01477669 0.09002236 0 0 Z " fill="#000000" transform="translate(328.72119140625,-0.177001953125)"/>
<path d="M0 0 C1.68879014 0.01507559 3.3775933 0.0287589 5.06640625 0.04101562 C9.16959729 0.07379036 13.2721521 0.12541282 17.375 0.1875 C17.17148926 0.86369385 16.96797852 1.5398877 16.75830078 2.23657227 C16.49001465 3.12916748 16.22172852 4.0217627 15.9453125 4.94140625 C15.67992676 5.8238501 15.41454102 6.70629395 15.14111328 7.61547852 C13.21350662 14.08690495 12.08257817 20.10502799 11.62109375 26.8671875 C11.375 29.1875 11.375 29.1875 10.375 31.1875 C9.27043457 31.217229 9.27043457 31.217229 8.14355469 31.24755859 C4.80367944 31.34287828 1.46442361 31.45252996 -1.875 31.5625 C-3.03386719 31.5934375 -4.19273437 31.624375 -5.38671875 31.65625 C-6.50175781 31.69492188 -7.61679688 31.73359375 -8.765625 31.7734375 C-10.30524902 31.82056885 -10.30524902 31.82056885 -11.87597656 31.86865234 C-14.63337425 32.18847129 -16.31519784 32.67270258 -18.625 34.1875 C-21.51246525 39.79477123 -21.07498068 46.39369093 -21.25 52.5625 C-21.37375 56.39875 -21.4975 60.235 -21.625 64.1875 C-31.525 64.1875 -41.425 64.1875 -51.625 64.1875 C-51.74085803 59.56347719 -51.84004177 54.94463987 -51.8996582 50.3203125 C-51.92454765 48.75308012 -51.95847282 47.18596065 -52.00219727 45.61914062 C-52.3386278 33.23849698 -51.31251274 22.29989787 -42.375 12.75 C-30.36954444 0.36751361 -16.23864502 -0.25318146 0 0 Z " fill="#000000" transform="translate(161.625,128.8125)"/>
</svg>
